<svg viewBox="0 0 1024 1024" preserveAspectRatio="xMidYMid meet" height="1024" width="1024" xmlns="http://www.w3.org/2000/svg" role="presentation" aria-hidden="true" aria-label="">
    <g>
        <path fill="#F7784B" d="M307 278h2l-.07 3.418c-.288 20.122 2.19 39.186 6.476 58.838q.588 2.715 1.125 5.441c.427 2.115.94 4.212 1.469 6.303l2 1c.5 1.914.991 3.83 1.433 5.758.899 3.552 2.275 6.869 3.692 10.242l.924 2.216c15.2 35.879 38.741 66.422 65.146 94.764 3.225 3.462 6.383 6.981 9.535 10.508 2.06 2.28 4.153 4.524 6.252 6.767 5.407 5.803 10.375 11.85 15.21 18.136a216 216 0 0 0 5.71 7.093c17.562 21.026 38.79 52.134 41.684 80.09L470 592l2 1c.563 2.45.563 2.45 1 5.688l.496 3.582L474 606l.535 3.45c6.256 40.64.5 81.576-17.535 118.55l-.944 1.963C448.604 745.277 438.695 758.674 427 771a312 312 0 0 0-3.125 3.75c-3.283 3.844-6.982 7.036-10.875 10.25l-1.583 1.317C397.511 797.847 382.893 807.435 367 816l-2.27 1.313C363 818 363 818 360 817a640 640 0 0 1 3.875-3.5l2.18-1.969C368 810 368 810 370 810l.688-1.687c1.688-2.975 3.779-5.033 6.312-7.313h2v-2a158 158 0 0 1 5-5c21.624-22.289 38.125-50.282 45.875-80.437l.653-2.511c1.252-5.15 1.679-9.754 1.472-15.052h2q.04-4.156.063-8.312l.025-2.381.01-2.295.016-2.11c-.045-2.127-.045-2.127-1.114-4.902a80 80 0 0 1-.098-4.668l.01-2.705.026-2.814.013-2.85q.018-3.482.049-6.963h-2l-.875 3.563C426.179 671.38 416.933 681.647 409 691l-2.133 2.805L405 696h-2l-.82 1.804c-1.166 2.17-2.322 3.596-4.051 5.333l-1.722 1.733-1.844 1.817-1.92 1.908c-3.49 3.427-7.036 6.638-10.893 9.655-5.333 4.23-10.163 8.902-15 13.688l-2.294 2.24c-4.562 4.567-8.402 9.284-11.994 14.648-1.686 2.507-3.528 4.853-5.462 7.174-1.588-4.765.425-8.75 1.875-13.437l.944-3.086c3.443-10.872 7.803-21.619 13.363-31.6L364 706l-1-2h3l.746-1.957c1.638-3.976 3.475-7.846 5.317-11.73l1.103-2.338c1.826-3.864 3.681-7.685 5.674-11.467 2.364-4.736 4.076-9.61 5.723-14.633l.92-2.792c9.95-30.799 9.504-63.252-5.336-92.375-5.09-9.613-13.973-24.621-24.147-29.708v-2l-2.375-.875C351 533 351 533 349 531l.621 2.422c7.309 29.793 1.12 58.512-14.621 84.578a375 375 0 0 1-4 6l-1.937 2.938c-4.069 6.04-8.398 11.831-12.844 17.596C293.293 674.27 275.869 705.172 279 744l1 3c.102 1.415.182 2.832.25 4.25 1.162 11.962 7.03 30.03 15.75 38.75a243 243 0 0 1 2.438 3.875c3.489 5.33 7.715 9.813 12.074 14.426C313 811 313 811 314.645 813.293c1.338 2.005 1.338 2.005 4.355 2.707 1.605 1.848 1.605 1.848 3.188 4.063l1.605 2.222L325 824c-6.839-2.106-13.31-4.773-19.812-7.75l-2.92-1.328c-6.315-2.913-12.325-6.045-18.221-9.742-1.942-1.346-1.942-1.346-4.047-1.18a957 957 0 0 1-4-4 112 112 0 0 0-4.875-3.062c-21.949-13.7-41.75-32.202-57.125-52.938l-1.32-1.775c-32.794-44.325-44.88-96.861-40.868-151.475l.266-3.647a545 545 0 0 1 2.422-24.478l.359-2.985c.62-4.8 1.5-9.071 3.141-13.64 1.094-3.882 2.107-7.785 3.125-11.687l.84-3.167.793-3.033.723-2.756c.627-2.443.627-2.443.519-5.357h2l.797-3.89c3.319-14.836 9.76-28.786 16.328-42.423l.895-1.87c3.178-6.613 6.466-12.945 10.714-18.939 1.277-1.895 2.29-3.815 3.266-5.878 2.596 2.596 2.314 3.885 2.5 7.5 1.085 16.115 6.192 33.103 13.5 47.5l1.262 2.555C245.622 524.593 260.816 539.213 281 549l-1.18-1.773c-8.18-12.553-15.53-25.377-20.664-39.48-.856-2.868-.856-2.868-3.156-3.747a171 171 0 0 1-.7-5.704c-.5-3.826-1.624-7.466-2.675-11.171-1.783-6.541-3.307-13.063-4.437-19.75l-.375-2.148c-.819-5.117-.91-10.046-.813-15.227h-2c-.943-62.771 14.963-115.794 55.57-164.279a200 200 0 0 0 2.848-3.509c1.152-1.439 2.362-2.83 3.582-4.212"></path>
        <path fill="#2C80B7" d="M520 144c4.688 5.349 4.601 10.168 4.61 17.086.016 1.057.032 2.114.05 3.203.048 3.362.07 6.724.09 10.086q.042 3.428.09 6.855.11 8.385.16 16.77l1.898-1.969 2.477-2.531 2.46-2.531C534 189 534 189 536 189l.75-1.75c1.433-2.58 3.034-4.311 5.25-6.25h2l.563-1.687c2.473-3.98 6.005-6.425 10.394-8.028 4.1-.849 6.714-.283 10.356 1.778 3.518 2.52 5.438 4.692 6.687 8.937.356 7.13-2.626 10.715-7.09 16.094C563 200 563 200 561 200v2c-2.373 2.577-4.8 4.844-7.562 7-2.512 1.918-2.512 1.918-4.375 4.438-2.397 2.977-5.106 5.148-8.063 7.562a94 94 0 0 0-7.5 8c-2.366 2.84-4.852 5.425-7.5 8-1.838 1.838-1.173 4.798-1.205 7.264l-.03 1.98q-.047 3.255-.081 6.51l-.063 4.502q-.083 5.935-.153 11.871-.077 6.053-.161 12.105-.162 11.884-.307 23.768l1.701-1.022 7.768-4.666 2.675-1.607a1923 1923 0 0 1 18.513-10.967 867 867 0 0 0 11.777-7.027l2.773-1.68a1476 1476 0 0 0 5.371-3.273l2.45-1.485 2.179-1.33C581 271 581 271 583 271c2.264-8.737 4.366-17.494 6.254-26.32l.573-2.672q1.171-5.457 2.321-10.917c.57-2.701 1.15-5.4 1.73-8.099l.513-2.472c1.242-5.718 2.677-10.639 6.984-14.833 4.109-2.64 6.915-2.98 11.625-2 3.745 1.067 6.283 2.437 9 5.313 4.333 8.47.111 19.268-2.062 27.938q-.835 3.356-1.66 6.714l-.743 2.969c-.608 2.298-.608 2.298-.535 4.379l16-9v-2l2.05-.254c3.755-.95 6.834-2.733 10.138-4.684l1.904-1.091c2.568-1.492 4.8-2.862 6.908-4.971 2.602-.633 2.602-.633 5.625-1.125l3.04-.508L665 227v2l2.25.625c3.715 1.857 4.899 3.673 6.75 7.375.696 5.482.263 8.43-2.662 13.29-2.395 3.06-5.516 4.654-8.9 6.46l-4.54 2.54-2.403 1.32a369 369 0 0 0-7.768 4.476l-2.612 1.536q-2.523 1.485-5.045 2.975l-2.316 1.348-2.053 1.204C634 273 634 273 632 273v2l3.766.793c5.73 1.278 11.354 2.86 16.984 4.52l3.074.857C663 283.296 666.778 285.667 671 292c.661 4.043.92 8.202-.98 11.918-2.739 3.412-5.654 5.59-9.935 6.48-9.399.378-18.166-3.235-26.96-6.148q-2.525-.819-5.05-1.633c-12.221-3.955-12.221-3.955-17.767-5.935l-3.19-1.135-2.677-.99c-5.337-1.219-8.981 1.113-13.5 3.802l-1.75 1.034c-1.88 1.112-3.754 2.235-5.629 3.357l-3.898 2.309A3924 3924 0 0 0 568 312a7348 7348 0 0 1-9.653 5.745 1485 1485 0 0 0-5.556 3.318l-2.51 1.496-2.154 1.29c-2.315 1.253-4.668 2.218-7.127 3.151v2l2.324.61c5.188 1.962 9.737 4.798 14.489 7.64a4675 4675 0 0 0 9.762 5.75c5.694 3.325 11.428 6.578 17.175 9.813l3.226 1.83 3.008 1.689 2.648 1.491c4.647 2.31 7.034 2.253 12.032.736l3.377-1.012 3.584-1.11 3.654-1.105c7.856-2.394 15.675-4.891 23.427-7.604 2.906-1.006 5.192-1.728 8.294-1.728l1-2c5.271-1.09 10.331-1.507 15.5.063 3.708 2.873 5.794 5.97 7.375 10.375.204 4.18-.38 7.723-3.09 11.055-5.53 5.093-11.908 7.01-18.972 9.257a3941 3941 0 0 0-6.981 2.297l-3.102.995A46.4 46.4 0 0 0 633 381l2.37 1.313q4.35 2.424 8.683 4.876 1.878 1.058 3.763 2.1a540 540 0 0 1 5.399 3.04l3.285 1.84C659 396 659 396 660 398.022c0 3.687-2.977 6.281-5.25 8.978l-3.016 3.688-1.44 1.734A125 125 0 0 0 646 418c-4.053-.595-6.98-1.904-10.52-3.941l-3.095-1.768-3.197-1.853-3.256-1.866A1985 1985 0 0 1 618 404c1 6.81 2.024 13.554 3.625 20.25 2.78 12.832 2.78 12.832-.25 19.125-3.571 3.947-6.545 5.392-11.812 6.063-5.278-.649-8.896-2.426-12.375-6.625-2.257-5.345-3.564-10.988-3.188-16.813l-2-1c-.272-1.763-.525-3.53-.712-5.303-1.568-21.199-1.568-21.199-12.132-38.396-8.018-5.228-8.018-5.228-17.156-7.301a176 176 0 0 1-3-3 72 72 0 0 0-3.8-2.375l-2.214-1.297-2.298-1.328-2.264-1.328c-3.189-1.86-6.366-3.643-9.674-5.285-3.477-1.753-6.53-3.93-9.7-6.18-2.084-1.46-2.084-1.46-5.05-1.207-1.145 9.923-1.854 19.832-2.187 29.813l-.075 2.23c-.553 20.004 1.61 34.884 15.676 49.77 8.801 8.971 18.626 17.053 28.72 24.51 2.66 2.39 3.703 4.53 4.202 8.044.089 5.718-.342 9.195-4.336 13.633-2.838 1.722-5.066 2.317-8.375 2.375l-2.21.086c-5.576-1.064-9.68-5.488-13.524-9.41l-2.786-2.819-2.855-2.92a2797 2797 0 0 0-5.672-5.761l-2.518-2.573c-1.903-2.023-1.903-2.023-4.06-2.978l.027 1.706a2312 2312 0 0 1 .193 17.618q.03 3.285.082 6.57c.048 3.153.071 6.305.089 9.458l.062 2.955c.002 5.908-.554 9.176-4.453 13.693-3.491 2.91-6.46 3.482-11.008 3.285-3.166-.453-5.353-1.505-7.992-3.285-3.18-4.278-4.129-8.15-4.114-13.401v-2.608l.016-2.788.005-2.875c.005-3.026.018-6.052.03-9.078q.009-3.08.014-6.16.017-7.545.049-15.09l-2.14 2.171a3492 3492 0 0 1-7.894 7.973 1522 1522 0 0 0-3.41 3.451 1482 1482 0 0 1-4.915 4.96l-1.529 1.56c-3.928 3.929-6.876 6.162-12.487 6.26-4.567-.113-7.144-1.309-10.625-4.375-2.879-3.454-3.358-6.366-3.496-10.84 1.602-6.977 8.273-12.227 13.129-17.058l2.524-2.53q2.631-2.634 5.27-5.26a2625 2625 0 0 0 8.085-8.097q2.56-2.558 5.12-5.113l2.45-2.462 2.266-2.247 1.996-1.99C493 421 493 421 495 421c.898-2.693 1.15-4.388 1.221-7.164l.07-2.528.06-2.718.07-2.798q.072-2.926.137-5.853c.067-2.993.145-5.987.223-8.98q.068-2.841.133-5.682l.072-2.724.052-2.518.051-2.22c.028-1.916.028-1.916-1.089-3.815l.434-2.043c.785-4.103.671-8.104.628-12.27l-.013-2.533q-.02-3.077-.049-6.154a1445 1445 0 0 0-47.508 27.75l-2.115 1.284a716 716 0 0 0-3.887 2.377C439.225 385 439.225 385 437 385l-.332 2.133c-1.12 6.977-2.5 13.851-4.082 20.738A34.5 34.5 0 0 0 432 416h-2l-.25 3.5c-.518 4.659-1.512 9.142-2.625 13.688l-.49 2.05c-1.068 4.234-2.41 7.997-4.635 11.762-5.9 3.019-12.685 2.579-19 1l-1-3-2-2c-2.928-8.784-.148-17.945 2-26.625l.867-3.621q1.051-4.38 2.133-8.754l-2 5-2.02-.777c-4.457-.333-7.032 1.82-10.668 4.214C383.202 417 383.202 417 381 417c-1.437-1.68-1.437-1.68-3-3.875-1.594-2.223-3.062-4.187-5-6.125-4-5.647-4-5.647-4-8h-2l-1-4q3.687-2.22 7.375-4.437l2.117-1.276 2.031-1.22 1.873-1.127A62 62 0 0 1 383 385c.658-3.03.658-3.03 1-6-2.865-1.52-5.674-2.603-8.773-3.55l-2.75-.87a662 662 0 0 0-5.68-1.75c-6.383-2.039-11.326-4.073-15.14-9.873-1.244-3.707-1.406-7.12-.657-10.957 2.442-4.203 5.486-7.149 10-9 5.092-.294 9.988.136 15 1l1 2a148 148 0 0 0 8.313 2.75l2.554.784q2.686.822 5.377 1.634c2.72.82 5.435 1.653 8.15 2.488l5.231 1.594 2.435.745c2.307.694 4.62 1.355 6.94 2.005l2.383.708c3.735 1.001 5.904 1.513 9.66.348l2.715-1.685 3.112-1.87 3.255-2.063q2.573-1.562 5.149-3.12a980 980 0 0 0 5.256-3.215c5.32-3.249 10.774-6.26 16.22-9.29 5.551-3.098 11.024-6.188 16.25-9.813l-1.702-1.003c-19.363-11.414-19.363-11.414-28.236-16.75a556 556 0 0 0-5.012-2.966c-3.806-2.24-7.427-4.502-10.894-7.242-6.033-4.618-6.033-4.618-13.324-5.985-5.394.89-10.442 2.818-15.541 4.738-5.886 2.16-11.866 4.023-17.846 5.904a475 475 0 0 0-6.253 2.05c-6.977 2.282-13.788 4.498-21.192 3.254-3.917-1.994-6.841-4.137-9-8-1.41-4.431-1.06-7.828.805-12.008 4.534-7.558 15.896-9.424 23.695-11.805l3.938-1.232q4.776-1.493 9.562-2.955l-2.32-1.282q-4.335-2.396-8.666-4.797l-3.724-2.06c-6.023-3.328-12.038-6.67-17.978-10.146l-2.316-1.356c-4-2.723-6.5-5.807-7.43-10.593-.296-5.35.818-8.662 4.434-12.766 3.54-3.034 6.769-3.48 11.39-3.415 5.211.829 9.474 3.773 13.923 6.477l3.06 1.796A984 984 0 0 1 388 241q3.651 2.165 7.313 4.313l2.675 1.613c1.926 1.231 1.926 1.231 4.012 1.074v2h3c-.348-1.975-.348-1.975-1-4l-2-1c1-2 1-2 2-3h-3l.625-1.95c.608-4.947-.979-9.424-2.242-14.193-1.322-5.364-1.496-9.42-.383-14.857 2.232-3.54 4.162-5.423 8-7 4.935-.7 8.912-.515 13.438 1.625 5.004 4.639 6.259 10.443 7.605 16.879l.525 2.427q.544 2.527 1.076 5.055c.543 2.574 1.1 5.145 1.659 7.715l1.052 4.928.502 2.317c.78 3.739 1.342 7.23 1.143 11.054h3l-.54 1.648c-.56 2.865-.293 5.097.165 7.977l.414 2.914L438 271a97 97 0 0 0 5 2q2.825 1.482 5.605 3.047l3.233 1.812 3.35 1.891 3.29 1.844c5.937 3.337 11.808 6.748 17.59 10.348 1.857 1.218 1.857 1.218 3.932 1.058q1.506 1.494 3 3 2.68 1.87 5.438 3.625l2.87 1.852c2.36 1.336 4.092 1.949 6.692 2.523l-.494-3.638c-.704-6.378-.63-12.738-.604-19.147l.005-3.93q.006-5.126.024-10.253.014-5.25.02-10.499.016-10.266.049-20.533l-1.745-.763c-2.545-1.396-4.27-2.984-6.333-5.025l-2.397-2.358-2.56-2.553-2.652-2.632q-2.775-2.758-5.54-5.525c-2.815-2.816-5.651-5.611-8.486-8.408q-2.693-2.684-5.385-5.373l-2.566-2.523c-4.803-4.84-8.794-9.023-9.586-16.063.702-5.165 2.206-8.239 6.25-11.777 3.757-1.746 7.145-2.544 11.184-1.36A42.3 42.3 0 0 1 478 179v2l3 1a136 136 0 0 1 5 5q2.624 2.658 5.25 5.313l2.64 2.675c1.745 2.127 1.745 2.127 3.11 2.012a3445 3445 0 0 1-.11-17.078q-.015-2.901-.04-5.801c-.025-2.79-.037-5.58-.045-8.371l-.032-2.593c0-6.55.32-12.65 4.414-18.032 6.112-4.618 12.265-5.192 18.813-1.125m-23 54 1 2ZM386 381v3l3-3z"></path>
        <path fill="#3AB8DD" d="M776.035 416.223c4.93 3.82 4.93 3.82 6.965 5.777v2l1.668.602c3.29 1.973 5.344 4.772 7.644 7.773l1.472 1.914C805.654 449.975 812.377 467.568 815 487l.465 3.145c3.48 30.46-7.821 61.216-26.22 85.043C782.848 583.2 776.12 589.716 768 596l-2.41 1.993c-19.873 15.684-45.107 21.956-69.769 24.714-1.914.215-1.914.215-3.821 1.293-4.124.079-8.242-.098-12.364-.242a805 805 0 0 0-6.103-.178c-6.6-.217-12.933-.643-19.404-1.962-6.671-1.316-13.409-2.286-20.127-3.332q-2.633-.411-5.265-.832-3.856-.614-7.714-1.211l-2.34-.38c-5.28-.805-10.34-.968-15.683-.863v-2a576 576 0 0 0-36.74-1.24c-2.758-.01-5.515-.04-8.272-.072-17.35-.103-35.506 1.777-51.719 8.433-2.27.88-2.27.88-5.27.88v3l-4-2c21.01-25.318 49.234-39.87 82-43 21.13-1.841 42.221-.523 63.305 1.282 33.013 2.808 69.342 3.069 96.696-18.283 14.351-12.134 23.25-28.429 26-47 .276-3.464.335-6.9.312-10.375l-.015-2.78c-.2-11.6-2.754-22.628-9.953-32C754 468 754 468 754 466h-2v-2l-1.738-.816c-2.313-1.21-4.328-2.603-6.45-4.121-10.233-6.845-21.731-8.224-33.734-5.93-5.358 1.51-10.443 3.775-15.078 6.867l-1 3-1.875.465c-4.074 1.026-5.947 5.168-8.125 8.535-5.993 10.099-7.699 20.903-5.278 32.446 1.866 6.51 4.244 12.112 8.278 17.554l2 2.813c2.134 2.334 4.214 3.717 7 5.187l-1 4v-2l-2.688.25c-12.194-.098-21.745-6.353-30.492-14.207-11.49-11.69-16.63-27.893-17.195-43.98.696-22.475 10.068-41.688 26.375-57.063 7.647-6.509 16.443-11.814 26-15l-1-2 3.082.063c3.661-.059 7-.46 10.605-1.063 24.231-3.545 46.63 2.783 66.348 17.223"></path>
        <path fill="#3AB9DD" d="m586.938 639.375 2.441.093c4.576.23 8.288.94 12.621 2.532q2.085.544 4.18 1.043c10.87 2.629 20.78 6.046 30.82 10.957l2.07.983c20.312 9.726 36.445 24.375 52.138 40.279l2.719 2.75q2.655 2.694 5.286 5.412l2.452 2.498 2.17 2.237c2.3 1.955 4.363 2.789 7.165 3.841a129 129 0 0 1 2 4 78 78 0 0 0 5.688 4.75l1.726 1.31c9.01 6.652 18.461 12.022 29.587 13.94l1 2 2-2c3.125-.125 3.125-.125 6 0l-1 2c10.898.57 19.704-1.264 29-7h2v-2l2.25-2c5.37-5.202 7.387-13.152 7.843-20.43-.31-8.494-3.436-16.237-9.094-22.57-8.503-7.07-18.276-7.932-29-7-7.634 1.655-13.443 5.665-18 12-2.49 5.153-3.958 10.388-5 16-3-1-3-1-4.132-2.828-4.68-11.424-4.948-22.494-.868-34.172 5.53-11.943 14.861-20.069 27.125-24.75 7.12-2.168 15.441-3.25 22.875-3.25v2l2.75-.25c14.328.058 27.574 9.607 37.25 19.25l1.934 1.863c12.2 12.689 16.757 30.988 16.535 48.133-.694 17.83-8.429 34.936-20.469 48.004l-2.152 2.36c-15.632 16.373-35.62 24.49-58.002 25.037-11.903.13-22.563-.482-33.846-4.397l-2.207-.652c-15.692-5.055-30.42-15.908-42.316-27.047a226 226 0 0 0-6.262-5.574c-4.267-3.721-8.287-7.65-12.277-11.664l-2.025-2.014c-5.483-5.494-10.614-11.239-15.538-17.236-2.34-2.772-4.78-5.278-7.375-7.813l-1.824-1.926C622.476 692.777 602.545 678.11 582 672h-2v-2l-2.875-.437C574 669 574 669 572 668l-1 3v-2h-3v-3c-14.43-2.526-28.204-4.324-42.875-4.187q-2.022.002-4.046.001c-11.319-.462-11.319-.462-22.078 2.186.376-2.353.617-3.656 2.42-5.277l1.833-1.09 2.067-1.237 2.242-1.271 2.299-1.326C520.267 647.963 532.907 642 545 642l1-2c13.697-.86 27.22-1.23 40.938-.625"></path>
        <path fill="#3AB7DC" d="m535.063 695.734 2.414-.008 2.524.024 2.523-.024 2.414.008 2.215.007C549 696 549 696 551 698h-4l2.852.804 3.774 1.07 3.726 1.055c9.79 2.873 9.79 2.873 13.649 7.07a407 407 0 0 0 3.875 3.313c10.339 9.054 16.283 19.496 17.875 33.313.856 12.955-2.316 24.22-10 34.75-7.146 6.82-14.875 10.252-24.688 10.875-6.072-.18-12.517-.902-17.062-5.25l3-.75c7.692-2.254 13.526-5.398 18-12.25 2.876-5.92 3.042-12.792 1.464-19.16-2.557-6.36-6.18-10.256-12.328-13.051-6.419-2.37-12.757-2.341-19.136.21-10.925 6.255-14.616 19.589-18.375 30.813C502.95 802.492 481.381 824.2 453 841c14.698 4.175 29.257 5.357 44.453 5.315 2.413-.003 4.825.02 7.238.046 13.452.054 26.402-1.5 39.308-5.361l4-1c9.96-2.808 18.932-7.108 28-12l2.973-1.582C595.426 816.846 608.727 799.91 615 782c1.069-4.622 1.118-9.27 1-14h2v-8h5l1 3h-2l.62 2.195.817 2.93.809 2.882c4.305 17.087 1.882 35.407-6.246 50.993-17.905 29.708-47.58 46.841-80.598 55.191-13.581 3.228-26.726 4.048-40.653 4.059l-2.42.002c-20.17-.027-38.91-2.796-58.33-8.252l-2.034-.554c-19.577-5.373-38.088-14.17-56.036-23.525l-2.117-1.085-1.918-.991c-1.945-.868-3.817-1.391-5.894-1.845v-5l2.046.652c3.86.454 6.687-.675 10.203-2.09l2.081-.812c5.417-2.155 10.749-4.5 16.044-6.938l2.216-1.007c3.453-1.633 5.249-2.564 7.41-5.805l2.148-.375c4.147-.91 7.049-3.192 10.476-5.625l2.152-1.51c8.674-6.148 16.659-12.773 24.224-20.24l1.674-1.646c2.38-2.4 4.27-4.51 6.013-7.433C456 785 456 785 459 784c1.01-1.725 1.01-1.725 2-4 1.001-1.66 2.004-3.32 3.02-4.973 5.612-9.146 10.503-18.564 14.944-28.332C484.69 734.143 491.352 723.985 501 714l1.859-1.938c6.464-6.188 14.98-10.385 23.445-13.137 3.706-1.272 4.679-3.178 8.758-3.191M617.001 769l1 3Z"></path>
        <path fill="#3AA8C8" d="M783 640v2l2.75-.25c14.327.058 27.574 9.607 37.25 19.25l1.934 1.863c12.2 12.689 16.756 30.988 16.535 48.133-.694 17.83-8.43 34.936-20.469 48.004l-2.152 2.36c-14.53 15.218-33.87 24.319-54.875 24.878a689 689 0 0 1-15.145.063l-3.253-.026C743 786 743 786 741 784l2.041.048c27.095.547 49.695-2.737 70.959-21.048l2.05-1.762c6.003-5.559 9.938-12.163 13.95-19.238l1.25-2.086c8.073-14.442 9.08-33.332 5.75-49.289-5.013-16.16-13.965-30.215-29-38.625l-2.363-1.363c-11.676-6.313-23.644-7.19-36.637-7.637 3.712-3.712 8.997-3.12 14-3"></path>
        <path fill="#FA8646" d="M429 721h1c-.776 8.53-3.433 16.755-8 24a1502 1502 0 0 0-3.812 6.625l-1.067 1.858a358 358 0 0 0-6.183 11.33c-4.109 7.572-9.587 13.862-15.301 20.257-1.617 1.907-3.038 3.869-4.45 5.93L389 794h-2l-.812 1.688c-1.29 2.51-2.717 4.905-4.188 7.312l4-2v2l2 1a6646 6646 0 0 1-9.125 5.313l-2.594 1.513c-9.905 5.753-9.905 5.753-13.281 7.174l-3-1a640 640 0 0 1 3.875-3.5l2.18-1.969C368 810 368 810 370 810l.688-1.687c1.688-2.975 3.779-5.033 6.312-7.313h2v-2a158 158 0 0 1 5-5c19.489-20.088 33.111-43.93 43-70h2z"></path>
        <path fill="#F66F3E" d="M218 447c2.596 2.596 2.314 3.885 2.5 7.5.589 8.745 2.378 17.048 5.063 25.375 1.167 3.831 1.756 7.087 1.437 11.125-2.302-2.302-2.644-3.71-3.5-6.812-.716-2.573-1.423-5.012-2.492-7.461-1.394-3.77-1.983-7.583-2.633-11.54l-.406-2.388Q217.478 459.9 217 457c-3.971 3.865-6.968 7.425-8 13h-2l-.27 1.984c-.972 4.015-2.678 7.532-4.417 11.266-4.71 10.36-8.42 20.936-11.946 31.746-.27.825-.54 1.65-.82 2.5a610 610 0 0 0-1.544 4.793c-1.782 5.49-1.782 5.49-4.003 7.711v-10h2l.797-3.89c3.319-14.836 9.76-28.786 16.328-42.423l.895-1.87c3.178-6.613 6.466-12.945 10.714-18.939 1.277-1.895 2.29-3.815 3.266-5.878"></path>
        <path fill="#39A7C7" d="M781 422h2v2l1.668.602c3.29 1.972 5.344 4.772 7.644 7.773l1.472 1.913C805.655 449.975 812.377 467.568 815 487l.465 3.145c3.484 30.5-8.046 59.437-24.985 84.09L789 576h-2c1.425-3.093 3.192-5.883 5.071-8.718C809.865 540.382 816.792 509.93 811 478c-4.12-19.485-13.726-39.002-28.566-52.512C781 424 781 424 781 422"></path>
        <path fill="#F87D40" d="m193 704 .855 1.738c1.517 2.996 3.158 5.914 4.797 8.844a440 440 0 0 1 2.54 4.617c3.859 7.095 7.895 14.245 13.023 20.504C216 742 216 742 216 744h2c1.594 1.8 1.594 1.8 3.5 4.313 7.825 10.308 7.825 10.308 17.5 18.687v2l1.68.719c2.871 1.586 5.031 3.562 7.445 5.781l2.633 2.406A172 172 0 0 1 255 782v2c-4.075-1.698-7.202-4.516-10.5-7.375l-1.868-1.618C231.847 765.57 222.535 755.511 214 744l-1.32-1.775C206.658 734.088 201.101 725.75 196 717l-1.418-2.414c-1.683-3.067-2.626-5.053-2.332-8.586z"></path>
        <path fill="#F46F3E" d="M375 451c5.148 2.574 8.55 6.505 12.375 10.688l1.922 2.068c3.76 4.062 7.423 8.2 11.055 12.375 1.945 2.206 3.95 4.346 5.97 6.482 5.653 5.987 10.844 12.213 15.85 18.746a234 234 0 0 0 6.219 7.72l1.697 2.046a333 333 0 0 0 3.293 3.902c1.478 1.793 1.478 1.793 3.619 4.973-.366 2.199-.366 2.199-1 4-2.825-3.469-5.509-7.02-8.161-10.621C422.56 506.232 417.065 499.502 411 493a594 594 0 0 1-3.375-3.875c-2.124-2.45-4.29-4.85-6.504-7.219l-1.528-1.64a555 555 0 0 0-3.038-3.23C393 473.222 393 473.222 393 471h-2c-1.41-1.398-1.41-1.398-3.062-3.375-3.626-4.283-7.4-8.409-11.215-12.523C375 453 375 453 375 451"></path>
        <path fill="#FA8746" d="M364 706h2c.75 1.688.75 1.688 1 4a105 105 0 0 1-4 5c-.714 2.103-.714 2.103-1 4l-1 2h-2l-.312 1.938c-1.315 5.857-3.368 11.53-5.688 17.062 4.948-2.544 8.488-5.977 11-11l4 2-1.941 1.836c-5.16 4.999-9.603 9.977-13.586 15.957-1.684 2.524-3.531 4.877-5.473 7.207-1.588-4.765.425-8.75 1.875-13.437l.944-3.086c3.683-11.63 8.715-22.592 14.181-33.477"></path>
        <path fill="#F5733E" d="M175 569h1c.074 4.578.017 8.98-.498 13.53-.54 5.328-.647 10.594-.635 15.947l-.003 2.936q0 3.057.006 6.116c.005 3.067 0 6.134-.007 9.201-.003 11.132.249 22.17 1.137 33.27h-2a202 202 0 0 1-2.625-24.125l-.12-2.417c-.505-11.471-.14-22.762.745-34.208.095-1.281.19-2.563.29-3.883q.349-4.684.71-9.367h2z"></path>
        <path fill="#F46D3D" d="M327 379c3 1 3 1 4.621 3.895q.918 1.955 1.817 3.918c8.345 17.356 18.773 33.146 30.906 48.07l1.969 2.43 1.675 1.988L369 441l-1 3c-12.74-13.638-41-45.493-41-65"></path>
        <path fill="#38ADD0" d="M628 651c30.03 5.034 55.898 36.705 76.062 57.046q2.463 2.483 4.938 4.954c-3 0-3 0-4.797-1.54l-1.953-2.085c-2.51-2.616-5.006-5.081-7.812-7.375-2.472-2.067-4.554-4.221-6.625-6.687-4.8-5.609-10.259-10.474-15.813-15.313l-1.671-1.47C657.594 667.449 643.1 659.419 628 652z"></path>
        <path fill="#39ACCE" d="M608 683c4.686 1.577 8.342 4.138 12.313 7l1.955 1.367c1.617 1.157 3.18 2.39 4.732 3.633v2l1.77.787c2.386 1.298 3.982 2.706 5.902 4.62l2.012 2.003 2.066 2.09 2.113 2.09 1.996 2.004 1.828 1.834C646 714 646 714 646 716l1.723.703c2.843 1.62 4.563 3.586 6.715 6.047l2.386 2.715a364 364 0 0 1 4.926 5.847c2.288 2.733 4.7 5.199 7.25 7.688l1.73 1.762c2.486 2.528 4.858 4.931 7.707 7.05L680 749v2c-3.541-1.51-5.816-3.571-8.52-6.29l-2.6-2.605-2.692-2.73-2.659-2.66c-6.021-6.062-11.73-12.302-17.154-18.903-2.34-2.771-4.78-5.277-7.375-7.812l-1.824-1.926c-7.895-8.215-16.919-14.935-26.051-21.699L608 684z"></path>
        <path fill="#41AACA" d="m516 706-1.617.996c-18.605 11.877-27.927 28.056-36.633 47.754-12.206 27.478-12.206 27.478-19.75 31.25 1.477-4.19 3.655-7.659 6.125-11.312 5.879-8.934 10.478-18.41 14.906-28.13C483.927 735.84 501.3 701.1 516 706"></path>
        <path fill="#2975A9" d="m432.797 296.387 3.37 2.074 1.77 1.1c3.098 1.925 6.207 3.832 9.317 5.736l1.93 1.182a554 554 0 0 0 13.406 7.912l1.825 1.045q4.33 2.471 8.672 4.917l3.112 1.768 2.745 1.545C481 325 481 325 482 327c-4.08-.593-6.992-1.92-10.543-3.992l-3.228-1.871-3.416-2.012-3.516-2.048a1018 1018 0 0 1-20.234-12.14l-6.234-3.81a479 479 0 0 1-5.055-3.17c-6.169-3.712-9.691-4.582-16.774-2.957 6.53-6.53 13.064-2.795 19.797 1.387"></path>
        <path fill="#2C7AAF" d="m506.313 143.188 1.688.813-2.938 1.874c-3.09 1.782-3.09 1.782-4.062 4.125a77 77 0 0 0-.206 4.542l-.06 2.851c-.017 1.018-.034 2.035-.05 3.084l-.064 3.153q-.096 4.998-.183 9.995l-.13 6.766q-.161 8.304-.308 16.61h-2c-1.066-7.634-1.186-15.216-1.185-22.912-.002-2.15-.02-4.3-.04-6.45-.07-16.679-.07-16.679 4.6-22.701 2.625-1.937 2.625-1.937 4.938-1.75"></path>
        <path fill="#F96E3D" d="M227 492c3 1 3 1 3.957 2.68l.856 2.195c6.955 16.552 17.81 31.297 32.046 42.344L266 541v2c-16.868-7.588-29.754-27.48-37-44-.772-2.323-1.406-4.622-2-7"></path>
        <path fill="#F28F50" d="M379 799h4l-1 4 4-2v2l2 1a6646 6646 0 0 1-9.125 5.313l-2.594 1.513c-9.905 5.753-9.905 5.753-13.281 7.174l-3-1a640 640 0 0 1 3.875-3.5l2.18-1.969C368 810 368 810 370 810l.688-1.687c1.688-2.975 3.779-5.033 6.312-7.313h2z"></path>
        <path fill="#39A5C8" d="m698 404-3.184 1.504c-20.328 9.763-35.51 23.383-43.558 44.808-1.54 4.515-2.613 8.965-3.258 13.688h-1c-1.268-14.958 7.611-28.439 16.816-39.559 6.909-7.724 22.786-23.793 34.184-20.441"></path>
        <path fill="#F46C3E" d="m300 286 3 1-1.18 1.512a1723 1723 0 0 0-3.644 4.695 474 474 0 0 1-4.446 5.617c-5.084 6.416-9.709 13.018-14.105 19.926l-1.514 2.363c-3.204 5.114-5.812 10.308-8.111 15.887h-2c2.05-18.236 20.865-37.169 32-51"></path>
        <path fill="#F78545" d="M257 784c3.279 1.503 5.996 3.397 8.875 5.563 9.785 7.166 19.666 13.486 30.62 18.699 4.093 1.957 7.784 4.137 11.505 6.738l-1 2-3.148-1.574-2.033-1.016q-2.208-1.104-4.413-2.21a687 687 0 0 0-9.379-4.634c-5.7-2.755-10.866-5.904-16.027-9.566l-1.854-1.293a801 801 0 0 1-6.209-4.394l-2.06-1.442c-1.682-1.217-3.287-2.537-4.877-3.871z"></path>
        <path fill="#3D75A2" d="M368 343v2l-2.082.262c-5.768.691-5.768.691-9.918 4.363L355 352h-2c.087 1.605.196 3.21.313 4.813l.175 2.707c.583 2.825 1.412 3.605 3.512 5.48v2a291 291 0 0 0 15.26 4.797c6.852 1.959 13.32 4.052 19.74 7.203-2.62 1.746-4.038 2.387-7 3v-3l-2.292-.747a1771 1771 0 0 1-10.333-3.44l-3.605-1.174c-12.972-4.384-12.972-4.384-17.114-10.682-1.243-3.707-1.405-7.12-.656-10.957 4.147-7.136 8.886-9.312 17-9"></path>
        <path fill="#3173A3" d="m473 441 3 1-1.912 1.88q-3.509 3.458-7.005 6.927-1.515 1.5-3.035 2.995a1147 1147 0 0 0-4.357 4.311l-2.65 2.619c-2.71 3.011-3.18 5.35-3.166 9.268l-.008 2.063c.067 2.156.067 2.156 1.133 4.937 5.712 3.396 10.884 3.111 17.129 1.543L474 478c-3.019 3.156-4.868 4.17-9.25 4.313-4.648-.06-7.202-1.187-10.75-4.313-2.879-3.454-3.358-6.366-3.496-10.84 1.669-7.266 8.66-12.552 13.746-17.535l2.547-2.52q3.094-3.06 6.203-6.105"></path>
        <path fill="#3AA9CC" d="M646 465h1l.12 1.92c.944 16.966.944 16.966 5.88 33.08l.867 2.137c4.51 10.159 11.943 16.97 21.133 22.863 1.342.988 2.678 1.985 4 3-8.893-.916-15.732-7.785-21.273-14.496-9.375-13.595-14.14-28.868-12.727-45.504z"></path>
        <path fill="#F6713E" d="M439 527c3.484 1.161 3.77 1.772 5.602 4.805l1.473 2.431 1.55 2.639 1.601 2.696c5.18 8.866 9.649 18.031 13.774 27.429l1.234 2.797c1.075 3.093.893 5.959.766 9.203-2.673-2.673-3.463-5.757-4.687-9.25-4.556-12.474-10.685-23.684-17.757-34.886l-1.396-2.223-1.261-1.984C439 529 439 529 439 527"></path>
        <path fill="#2870A1" d="m664 227 1 2 2.313.75c3.732 1.736 4.857 3.589 6.687 7.25.812 6.391-.229 9.802-4 15-2.562 2-2.562 2-5 3l-3-1 1.715-1.242 2.222-1.633 2.215-1.617c1.959-1.388 1.959-1.388 2.848-3.508.096-1.456.13-2.916.125-4.375l.008-2.336c-.131-2.258-.387-4.154-1.133-6.289-3.922-2.307-7.534-2.454-12-2-5.932 2.454-11.246 5.94-16.608 9.445-1.428.911-2.907 1.74-4.392 2.555l-2-1c2.761-3.25 6.38-5.044 10.063-7.062 4.767-2.545 4.767-2.545 8.937-5.938 2.383-.633 2.383-.633 5.125-1.125l2.758-.508z"></path>
        <path fill="#2F73A3" d="M365 228c3.195 1.392 6.097 3.078 9 5v2c-3.403-1.059-6.014-2.009-9-4-2.974-.242-2.974-.242-6.187-.125l-3.293.055-2.52.07v2h-2c-2.402 5.793-1.836 9.866-.25 15.813 1.674 2.929 3.104 2.955 6.25 4.187 2.81 1.473 5.559 3.05 8.313 4.625l2.244 1.273Q370.28 260.445 373 262c-2.336.82-3.569 1.155-5.935.307a398 398 0 0 1-6.502-3.807l-2.276-1.281c-5.631-3.328-10.208-7.03-11.916-13.66.165-5.272 1.016-8.458 4.629-12.559 4.197-3.597 8.703-3.955 14-3"></path>
        <path fill="#F88846" d="M283 767c1.49 2.236 2.678 4.26 3.84 6.652.34.695.682 1.389 1.033 2.104q1.06 2.175 2.117 4.351c1.757 3.57 3.506 6.778 6.01 9.893q1.32 2.057 2.625 4.125c3.587 5.444 7.92 10.134 12.375 14.875l-3 1-1.426-1.645-1.887-2.168-1.863-2.144a73 73 0 0 0-3.355-3.543c-5.57-5.688-9.311-12.819-12.844-19.875l-1.048-2.09c-1.532-3.133-2.967-6.09-3.577-9.535z"></path>
        <path fill="#38A9CB" d="M680 751c2.723 1.273 4.978 2.652 7.285 4.574l1.84 1.513 1.938 1.6C705.959 770.736 721.462 778.338 740 783v1c-18.607 1.692-40.06-14.75-53.59-25.79-2.435-2.233-4.42-4.577-6.41-7.21"></path>
        <path fill="#F97041" d="m349 527 4 2v2l1.613.633c3.342 1.914 5.885 4.527 8.575 7.242l1.725 1.736C379 555.057 379 555.057 379 561c-3.631-1.21-3.986-2.155-6-5.312-2.976-4.41-6.218-8.347-9.812-12.25-.48-.525-.96-1.05-1.456-1.59-2.572-2.798-2.572-2.798-5.732-4.848v-2l-2.375-.812C351 533 351 533 349 530z"></path>
        <path fill="#276E9F" d="M617 205c3.272 1.95 4.646 3.309 6.375 6.688 1.136 6.02.301 11.78-2.375 17.312h-1l.324-3.105.364-4.083.22-2.04c.379-4.564-.037-7.178-2.908-10.772-4.264-2.842-7.998-2.616-13-2-4.23 2.07-5.341 4.464-6.812 8.75A163 163 0 0 0 597 220h-1c.192-4.402.43-7.992 2.625-11.875 5.99-5.359 11.12-5.888 18.375-3.125"></path>
        <path fill="#2A73A6" d="M454 192c4.833 4.027 9.381 8.244 13.809 12.71l1.853 1.859q2.89 2.9 5.776 5.806l3.95 3.965A9013 9013 0 0 1 489 226l-3 1a4392 4392 0 0 1-13.672-13.507q-2.324-2.301-4.656-4.595a1805 1805 0 0 1-6.672-6.605l-2.121-2.074-1.942-1.94-1.722-1.703C454 195 454 195 454 192"></path>
        <path fill="#FB854A" d="M283 691h2c-.665 6.203-1.919 11.988-3.54 18-2.121 8.108-2.653 16.158-3.022 24.5l-.131 2.781q-.157 3.36-.307 6.719h-1c-1.83-18.773-.282-34.193 6-52"></path>
        <path fill="#FB783E" d="M340 602h1c-.455 5.555-1.996 9.408-5 14.125l-1.206 1.949c-5.126 8.199-10.428 16.64-16.794 23.926h-2l2-4 .875-1.937C320 634 320 634 321.801 631.777c2.36-2.981 4.463-6.078 6.512-9.277l1.171-1.823c3.84-6.053 7.227-12.31 10.516-18.677"></path>
        <path fill="#44B6D9" d="m512 606 2 1-2 3c-.167 3.125-.167 3.125 0 6l2 1a742 742 0 0 1-4.812 2l-2.708 1.125C504 621 504 621 501 621v3l-4-2c4.698-5.661 9.747-10.852 15-16"></path>
        <path fill="#FA743E" d="M391 589h2c1.977 8.43 2.312 16.673 2.26 25.282-.01 2.176 0 4.352.013 6.529q0 2.092-.007 4.185l-.007 3.787c-.242 3.012-.67 4.693-2.259 7.217q-.255-4.969-.5-9.937l-.145-2.807a272 272 0 0 1-.341-15.07c-.024-3.758-.27-7.5-.514-11.249l-.145-2.333q-.174-2.802-.355-5.604"></path>
        <path fill="#F66B3E" d="M252 380h1a656 656 0 0 1-.375 5.5c-.07 1.02-.14 2.042-.21 3.094C252 392 252 392 251.03 395.625c-1.458 5.537-1.74 11.182-2.156 16.875l-.262 3.36q-.315 4.07-.613 8.14l-2-1c-.329-8.824-.051-17.272 1.313-26l.356-2.35c.87-5.182 2.356-9.782 4.331-14.65"></path>
        <path fill="#38ABCD" d="M727 451c10.89.527 18.694 4.832 26.602 12.266 5.614 6.4 10.295 14.472 12.398 22.734-.375 2.375-.375 2.375-1 4l-1.137-3.035c-2.665-6.97-5.197-13.064-9.863-18.965v-2h-2v-2l-1.75-.82c-2.262-1.186-4.19-2.55-6.25-4.055-5.275-3.593-10.907-5.372-17-7.125z"></path>
        <path fill="#3879A8" d="M392.063 380.938c1.454.03 1.454.03 2.938.063-2.308 2.307-4.432 3.277-7.375 4.687-11.212 4.601-11.212 4.601-19.625 12.313h2c1.761 1.863 1.761 1.863 3.687 4.312l1.95 2.426L377 407l-1 3c-2.919-2.627-4.946-5.67-7-9v-2h-2l-1-4q3.686-2.22 7.375-4.438l2.117-1.275 2.03-1.221 1.873-1.127A62 62 0 0 1 383 385l2-3h3c1-1 1-1 4.063-1.062"></path>
        <path fill="#3CAFD0" d="m556 779 2 1c-3.509 3.096-6.492 4.742-11 6 8.852 2.95 19.494 1.362 28-2v-2l4-1c-4.715 5.286-9.94 8.14-17 9-6.765.338-13.705.09-19.562-3.625L541 785l3-.75c3.721-1.038 6.933-2.67 10.3-4.543z"></path>
        <path fill="#38ABCE" d="M767.5 673.688c9.69.197 17.41 2.54 24.5 9.313 2.262 2.503 4.463 4.983 6 8l-1 3-1.25-2.012C790.114 683.37 785.025 679.447 775 677q-3.961-.413-7.937-.625l-2.073-.117A712 712 0 0 0 760 676c2.623-2.623 3.846-2.298 7.5-2.312"></path>
        <path fill="#2873A7" d="m451.328 346.313 1.672.688a751 751 0 0 1-11.469 6.945q-1.953 1.17-3.89 2.37c-12.117 7.491-12.117 7.491-17.927 6.302-2.64-.906-3.702-1.606-5.714-3.618l1.969.465c9.016 1.548 14.057-1.589 21.468-6.464a722 722 0 0 1 6.309-4l2.771-1.813c2.483-1.187 2.483-1.187 4.811-.875"></path>
        <path fill="#FB7B40" d="M425 664c.71 1.652.71 1.652 1 4-3.82 7.516-9.62 14.202-15.02 20.625A130 130 0 0 0 406 695l-3-1 2.125-2.457C416.304 678.625 416.304 678.625 425 664"></path>
        <path fill="#2B76A7" d="m670 356 2 1c-.995 5.528-2.54 8.023-6.858 11.555-3.798 2.562-7.936 3.913-12.267 5.32l-2.668.93c-4.253 1.437-7.68 2.364-12.207 2.195v-2c1.111-.315 2.222-.63 3.367-.953 14.426-3.221 14.426-3.221 26.196-11.047 1.147-2.394 2.035-4.39 2.437-7"></path>
        <path fill="#2976AA" d="M466 173c5.62.401 8.087 2.18 12 6v2l3 1a141 141 0 0 1 5 5l2.676 2.676L496 197l-1 3-1.908-1.956a2092 2092 0 0 0-7.107-7.224 808 808 0 0 1-3.058-3.119c-7.636-7.924-7.636-7.924-16.927-13.701z"></path>
        <path fill="#2B76A7" d="M554 448c3.802 1.574 6.243 3.976 9.125 6.875l2.633 2.617c4.16 4.654 4.621 7.977 4.504 14.09-.336 3.102-1.22 5.063-3.262 7.418h-2l.938-1.687c2.177-4.74 2.235-8.129.9-13.227-1.458-3.628-4.093-5.897-6.963-8.461A217 217 0 0 1 554 450z"></path>
        <path fill="#F86C3D" d="M246 426h1c1.832 11.087 2.231 21.78 2 33h-2v-9h-2z"></path>
        <path fill="#266C9D" d="m568 175 2 3-1 3-1.875-2.437c-2.092-2.523-2.859-3.355-6.008-3.872-6.851-.393-10.1 1.894-15.117 6.309a292 292 0 0 1-4 3v-3h2l.563-1.687c2.808-4.518 6.869-6.828 11.875-8.375 4.566.08 7.845 1.43 11.562 4.062"></path>
        <path fill="#39ADCF" d="M556 741c4.414 1.734 6.74 4.591 8.918 8.754 3.176 7.38 3.048 14.317.27 21.808-1.02 2.504-1.02 2.504-2.188 4.438l-3 1c2-5 2-5 3.05-7.309 2.103-5.96 1.618-12.547-.237-18.504-2.056-3.615-4.307-6.869-6.813-10.187"></path>
        <path fill="#55B7D3" d="M510 655v2h-2v2l26 1v1l-2.06.076c-3.126.117-6.252.24-9.378.361l-3.24.12c-10.45-.089-10.45-.089-20.322 2.443.368-2.652.687-3.738 2.777-5.484l2.16-1.266 2.153-1.297C508 655 508 655 510 655"></path>
        <path fill="#3A75A2" d="m363 285-1.715 1.023-2.223 1.352-2.214 1.336c-1.986 1.166-1.986 1.166-2.848 3.289-.71 6.587-.71 6.587 1.688 12.5 2.376 1.541 4.628 2.605 7.312 3.5v1c-4.542-.178-6.5-.532-9.875-3.687-2.568-4.003-3.68-6.588-2.715-11.329 1.219-3.94 2.353-5.777 5.527-8.546 3.295-1.547 3.813-1.498 7.063-.438"></path>
        <path fill="#F6703E" d="M182 531h2c-.676 6.037-1.696 11.93-2.937 17.875l-.514 2.586-.514 2.469-.457 2.226C179 558 179 558 177 560c-.968-5.617-.952-8.565 1-14 .751-2.614 1.437-5.244 2.125-7.875l.55-2.086q.666-2.52 1.325-5.039"></path>
        <path fill="#2973A5" d="m448 376 2 1c-3.285 3.679-6.664 5.752-11 8h-2l-.367 2.414c-2.246 14.199-2.246 14.199-5.633 17.586.472-2.644.955-5.283 1.473-7.918.579-3.001.579-3.001.648-5.758.22-2.887.54-4.739 1.879-7.324a54 54 0 0 1 13-8"></path>
        <path fill="#2976AC" d="M498 262c2.21 3.316 2.256 4.391 2.266 8.254l.007 3.088-.023 3.22.023 3.233-.007 3.084-.007 2.83C500 288 500 288 498 290c-1-1-1-1-1.133-3.703A268 268 0 0 1 498 262"></path>
        <path fill="#39ACCD" d="M763 644c-2.698 1.799-5.377 3.257-8.25 4.75-8.255 4.524-12.907 8.794-17.488 17.078C736 668 736 668 734 670c.4-7.99 5.8-13.06 11.375-18.25 5.11-4.37 10.561-8.633 17.625-7.75"></path>
        <path fill="#F78845" d="M407 786h2c-1.371 3.206-2.8 4.91-5.59 6.98l-2.127 1.588-2.22 1.62c-.73.545-1.458 1.091-2.21 1.654-5.43 4.017-5.43 4.017-8.853 5.158v-3a99 99 0 0 1 5-3l1-2 3-1 1.875-1.875c2.21-2.21 4.419-3.589 7.125-5.125z"></path>
        <path fill="#2975A9" d="M584 301v2l-3.078 1.723-2.003 1.123q-2.18 1.222-4.36 2.44c-3.425 1.922-6.834 3.86-10.188 5.905l-3.183 1.934-2.833 1.758C556 319 556 319 553 318q6.21-3.658 12.426-7.309 4.16-2.442 8.304-4.914l3.207-1.902 2.84-1.695C582 301 582 301 584 301"></path>
        <path fill="#2974A8" d="M539 357c3.67 1.37 6.939 3.034 10.3 5.04l2.96 1.757 3.053 1.828 3.11 1.852q3.792 2.256 7.577 4.523l-4 2-1.256-1.35c-1.792-1.695-3.517-2.83-5.65-4.06l-2.254-1.31-2.34-1.342-4.594-2.66-2.052-1.18c-1.652-.978-3.257-2.033-4.854-3.098z"></path>
        <path fill="#38AACC" d="M508 780c1 3 1 3-.3 6.117a193 193 0 0 1-2.012 3.758l-1.08 1.992c-2.668 4.78-5.658 9.225-8.983 13.57l-1.298 1.701c-1.056 1.332-2.185 2.604-3.327 3.862h-2c1.705-3.853 4.193-7.075 6.688-10.437C500.473 794.01 504.363 787.25 508 780"></path>
        <path fill="#E2704C" d="M307 278h2v18l-2 1v-9l-4-1-2-2a418 418 0 0 1 2.875-3.5l1.617-1.969z"></path>
        <path fill="#2874A9" d="M438 272c4.053.595 6.98 1.904 10.52 3.941l3.095 1.768 3.197 1.853 3.256 1.866Q462.04 283.705 466 286v2c-9.787-3.73-19.171-9.407-28-15z"></path>
        <path fill="#2970A2" d="M410 204c4.096-.328 6.539-.23 10.25 1.625 3.993 3.448 5.712 7.28 6.75 12.375q.097 2.374.063 4.75l-.028 2.422L427 227h-1c-.23-1.109-.461-2.217-.7-3.36q-.492-2.195-.988-4.39l-.45-2.21c-.873-3.764-1.491-5.665-4.268-8.477-2.208-1.33-3.922-2.228-6.406-2.813L410 205z"></path>
        <path fill="#3AAED0" d="m757 541 1 2c-5.605 8.331-10.986 15.767-19 22 0-3 0-3 2.16-5.348l2.903-2.715c5.074-4.857 9.158-9.992 12.937-15.937"></path>
        <path fill="#F96F3F" d="M262 511c3.202 2.135 3.743 3.395 5.105 6.855 1.434 3.436 3.192 6.706 4.907 10.008C273 530 273 530 273 532c-3-1-3-1-4.075-2.519l-.968-1.938-1.064-2.123-1.08-2.232-1.116-2.198c-1.852-3.756-2.697-5.663-2.697-9.99"></path>
        <path fill="#F96E3D" d="M254 486c4.65 6.976 6.372 15.86 8 24-4.076-2.718-4.943-5.377-6-10l-1.062-3.312c-.947-3.723-1.094-6.866-.938-10.688"></path>
        <path fill="#39ACCF" d="M677 504c2.393 2.393 3.004 4.399 4.188 7.563 2.83 6.98 6.453 13.198 12.812 17.437v2c-4.855-1.355-6.963-4.068-9.625-8.125l-1.19-1.77C679.518 515.514 677 510.799 677 504"></path>
        <path fill="#2974A7" d="M483 357v2c-3.761 2.667-7.825 4.877-11.812 7.188l-3.393 2.021-3.252 1.896-3 1.755C459 373 459 373 456 372a3927 3927 0 0 1 10.571-6.409q1.8-1.089 3.597-2.182c1.72-1.047 3.444-2.087 5.168-3.128l3.142-1.904C481 357 481 357 483 357"></path>
        <path fill="#2B77AA" d="M629 275c10.186.334 19.428 3.77 29 7v2c-6.638-1.391-13.08-3.137-19.562-5.125l-2.768-.84A2632 2632 0 0 1 629 276z"></path>
        <path fill="#F96C3C" d="M249 460c2.438 3.657 2.922 7.129 3.625 11.375l.406 2.29c.655 3.82 1.14 7.443.969 11.335-4.13-3.542-4.394-7.794-5-13-.146-4.007-.124-7.993 0-12"></path>
        <path fill="#2C7CB1" d="m541 182 2 3c-9.226 9.595-9.226 9.595-15 13 .472-4.248 2.889-6.268 6-9h2l.813-1.812c1.172-2.16 2.38-3.546 4.187-5.188"></path>
        <path fill="#F3874B" d="m432 760 4 1-1.758 1.941c-4.483 4.964-8.916 9.957-13.242 15.059l-1-3 3-1c1.067-1.8 1.067-1.8 2-4 1.741-3.104 3.432-5.549 6-8z"></path>
        <path fill="#F77D3C" d="M460 714h2c-.544 5.474-2.554 9.583-5.062 14.375l-1.143 2.23A918 918 0 0 1 453 736h-2c1.764-5.938 4.04-11.348 6.914-16.836 1.195-2.252 1.195-2.252 2.086-5.164"></path>
        <path fill="#F66C3E" d="M267 338c1 2 1 2 .145 5.082l-1.332 3.73-1.293 3.708c-1.472 3.37-3.089 5.747-5.52 8.48.419-7.255 2.682-13.54 6-20z"></path>
        <path fill="#2874A9" d="M561 341c5.28.529 9.342 3.23 13.813 5.875l2.388 1.355 2.256 1.325 2.062 1.202L583 352v3q-5.505-3.212-11-6.437l-3.18-1.854-3.008-1.768-2.792-1.634L561 342z"></path>
        <path fill="#2772A6" d="M481 331q-5.682 3.259-11.375 6.5l-3.273 1.879-3.125 1.777-2.889 1.65C458 344 458 344 456 344v-2c3.405-2.041 6.826-4.054 10.25-6.062l2.934-1.76 2.832-1.65 2.602-1.54c2.674-1.109 3.73-1.021 6.382.012"></path>
        <path fill="#39ADCF" d="m795 722 2 1c-5.372 7.606-10.791 13.315-20 16-2.277-.395-2.277-.395-4-1q2.593-1.189 5.188-2.375l2.917-1.336A185 185 0 0 1 789 731v-2a283 283 0 0 1 5-5z"></path>
        <path fill="#2B77AA" d="M536 431c3.301.58 4.911 1.549 7.234 3.941l1.739 1.768 1.777 1.853 1.824 1.866A864 864 0 0 1 553 445l-1 3q-4.005-3.965-8-7.937l-2.312-2.288-2.188-2.177-2.031-2.016C536 432 536 432 536 431"></path>
        <path fill="#256FA4" d="M544 215c0 4.185-2.218 6.134-5 9-1.734 1.528-3.504 3.003-5.285 4.477-2.563 2.277-4.6 4.83-6.715 7.523l-3-1z"></path>
        <path fill="#2C73A5" d="m407.313 205.188 1.688.813-2.875 1.562c-3.842 2.997-4.322 4.695-5.125 9.438-.075 2.332-.096 4.668 0 7h-2c-.917-5.319-1.447-8.997 1-14 4.101-5.073 4.101-5.073 7.312-4.813"></path>
        <path fill="#286D9D" d="M464 172c-2 2-2 2-5.5 2.813-3.53.819-3.53.819-4.937 3.187-.815 4.342-.717 8.597-.563 13l-2-1c-.98-4.447-1.37-6.93.125-11.25 3.602-5.283 6.384-7.354 12.875-6.75"></path>
        <path fill="#39AECF" d="m602 806 2 1a822 822 0 0 1-5.562 6.25l-1.557 1.777c-3.617 3.999-7.073 6.524-11.881 8.973v-2c1.434-1.41 1.434-1.41 3.438-3.062 4.785-4.059 9.173-8.458 13.562-12.938"></path>
        <path fill="#FB8145" d="m375 685 2 3a677 677 0 0 1-2.75 5.75l-1.547 3.234c-1.628 2.883-3.251 4.82-5.703 7.016 0-3.08.388-4.133 1.75-6.793l1.094-2.158 1.156-2.236 1.156-2.272q1.416-2.774 2.844-5.541"></path>
        <path fill="#FA6E37" d="M175 569h1c.115 6.923-.325 13.674-1 20.563-.095 1.008-.19 2.017-.29 3.056q-.349 3.69-.71 7.381h-1v-24h2z"></path>
        <path fill="#FA6E3B" d="M349 539c3.195 3.195 3.271 6.537 3.688 10.875l.324 3.117c-.013 3.177-.645 5.168-2.012 8.008h-1z"></path>
        <path fill="#FB723C" d="M350 565h1q.079 3.343.125 6.688l.07 3.761c-.186 3.388-.615 5.573-2.195 8.551l-2 1q.464-4.157.938-8.312l.263-2.381.264-2.295.238-2.11C349 568 349 568 350 565"></path>
        <path fill="#3086BE" d="M500 272h1v32h-1l-1-11-2 2v-5h2z"></path>
        <path fill="#44AFCE" d="m448 795 1 4-15 12-2-1 2.738-2.52 3.575-3.293 1.802-1.658 1.748-1.611 1.603-1.476A176 176 0 0 0 448 795"></path>
        <path fill="#F78141" d="m446 742 2 2-11 16-2-3 3-1a89 89 0 0 0 2-5q1.5-2.447 3.125-4.812l1.633-2.395z"></path>
        <path fill="#FB793F" d="M391 645c1.793 4.167.012 7.747-1.437 11.75l-.737 2.113A605 605 0 0 1 387 664h-1c1.207-15.207 1.207-15.207 5-19"></path>
        <path fill="#2873A5" d="M653 260v2c-2.594 1.99-5.49 3.543-8.312 5.188l-2.381 1.443c-.758.445-1.515.89-2.295 1.35l-2.11 1.246C636 272 636 272 633 271l1.906-1.137c4.884-2.92 9.732-5.873 14.5-8.98C651 260 651 260 653 260"></path>
        <path fill="#FC7D3D" d="M283 691h2c-.567 6.354-1.29 13.29-6 18 .584-6.304 2.04-11.987 4-18"></path>
        <path fill="#F76B3C" d="M258 360c1.113 3.302.889 5.13-.312 8.375l-.852 2.363L256 373l-1.187 3.563L254 379h-1c-.42-6.293.772-12.093 3-18z"></path>
        <path fill="#276E9F" d="M659 284c2.188-.312 2.188-.312 5 0 2.876 2.474 4.896 4.844 7 8 .25 3.563.25 3.563 0 7l-2 2-.078-1.793c-.375-5.222-.889-8.51-4.922-12.207-2.618-1.333-2.618-1.333-5-2z"></path>
        <path fill="#FA713E" d="M268 544c4.143.598 7.182 2.007 10.813 4.063l2.957 1.66L284 551c-2.656 1.013-3.784 1.077-6.508.11-.863-.45-1.727-.898-2.617-1.36l-2.633-1.328C270 547 270 547 268 544"></path>
        <path fill="#2975A9" d="M567 374c4.2.905 7.58 2.903 11.25 5.063l1.969 1.142q2.394 1.392 4.781 2.795c-1.582.738-1.582.738-4 1a62 62 0 0 1-6.687-3.812l-1.8-1.12c-4.365-2.773-4.365-2.773-5.513-5.068"></path>
        <path fill="#2C76A9" d="M402 229c1.517 2.805 2.453 5.386 3.125 8.5l.508 2.281C406 242 406 242 406 246l-4-1c1-2 1-2 2-3h-3l.5-2c.622-3.731.564-7.219.5-11"></path>
        <path fill="#FB8043" d="m396 701 3 1-11 11-3-1z"></path>
        <path fill="#F97434" d="M474 652h1q.08 4.594.125 9.188l.05 2.619c.035 4.515-.02 8.094-2.175 12.193h-1c.598-8.007 1.247-16.006 2-24"></path>
        <path fill="#2D77A9" d="m496 453 1 3-10 10-3-1z"></path>
        <path fill="#E29157" d="M315 815c2.726.373 3.808.792 5.703 2.848l1.547 2.215 1.578 2.222L325 824q-2.159-.68-4.312-1.375l-2.426-.773C316 821 316 821 313 819l3-1z"></path>
        <path fill="#246A9C" d="m508 144-2.875 1.438c-2.243 1.453-3.013 2.238-3.898 4.796a89 89 0 0 0-.805 4.84L500 157l-2 1c-.42-6.09-.057-9.108 4-14 2.49-1.245 3.41-.777 6 0"></path>
        <path fill="#61B1C8" d="m502 616 1 3 1.645-.691 2.168-.871 2.144-.88C511 616 511 616 514 617a742 742 0 0 1-4.812 2l-2.708 1.125C504 621 504 621 501 621v3l-4-2z"></path>
        <path fill="#367DB0" d="M376 375c6.259-.533 10.451 1.182 16 4-2.62 1.746-4.038 2.387-7 3v-3l-9-3z"></path>
        <path fill="#2975A9" d="M616 297c6.548 1.162 12.745 2.734 19 5v1c-7.03-.454-12.585-2.12-19-5z"></path>
        <path fill="#2774AA" d="M467 288c5.795 1.794 11.4 3.931 16 8v2c-3.79-1.427-7.271-3.162-10.812-5.125l-2.958-1.633L467 290z"></path>
        <path fill="#2673A7" d="M580 275q-3.68 2.294-7.375 4.563l-2.117 1.326c-1.8 1.099-3.651 2.112-5.508 3.111l-2-1c2.381-2.592 4.95-4.399 7.938-6.25l2.59-1.64c2.835-1.273 3.613-.992 6.472-.11"></path>
        <path fill="#FB7C41" d="M384 664c1.148 1.61 1.148 1.61 2 4-.898 3.016-.898 3.016-2.375 6.25l-1.46 3.266L381 680l-2-1c3.075-10.558 3.075-10.558 5-15"></path>
        <path fill="#F97240" d="M379 562h2q1.507 2.684 3 5.375l1.688 3.023C387 573 387 573 387 575h-3a669 669 0 0 1-2.5-4.812l-1.406-2.708C379 565 379 565 379 562"></path>
        <path fill="#2B74A6" d="M537 465c4.526 3.678 8.394 7.41 12 12-3.796-.564-5.587-2.183-8.25-4.875l-2.14-2.117C537 468 537 468 537 465"></path>
        <path fill="#4478A2" d="m366 395 3 1-1 2h2c1.762 1.863 1.762 1.863 3.688 4.313l1.949 2.425L377 407l-1 3c-2.918-2.627-4.945-5.67-7-9v-2h-2z"></path>
        <path fill="#38ADCE" d="M711 716c4.356 1.45 7.318 3.677 10.813 6.625l2.957 2.477L727 727c-3.975 0-5.39-1.469-8.562-3.812l-2.942-2.145C713 719 713 719 711 716"></path>
        <path fill="#FB783E" d="m314 643 1 3c-1.434 2.48-1.434 2.48-3.437 5.188-.66.9-1.318 1.802-1.997 2.73L308 656l-3-1z"></path>
        <path fill="#FB733D" d="M346 586h1c.345 5.638-.36 9.112-3 14l-3 1z"></path>
        <path fill="#F86B39" d="M311 330c4.477 5.256 4.112 10.407 4 17-3.717-3.717-3.947-9.48-4.125-14.562z"></path>
        <path fill="#2671A6" d="m544 296-15 9v-3c2.52-1.86 2.52-1.86 5.813-3.75l3.269-1.922C541 295 541 295 544 296"></path>
        <path fill="#F58B4A" d="M311 810c3.08 2.773 4.688 5.063 6 9-5.75.125-5.75.125-8-1v-2l3-1z"></path>
        <path fill="#3278A8" d="M403 412h2c-.48 5.569-1.3 10.67-3 16h-1c-.207-5.789.408-10.43 2-16"></path>
        <path fill="#2C73A6" d="M374 264c4.062.578 6.848 1.891 10.313 4.063l2.675 1.66L389 271c-1.676.676-1.676.676-4 1-2.543-1.145-2.543-1.145-5.187-2.812l-2.668-1.645C375 266 375 266 374 264"></path>
        <path fill="#2974A7" d="M615 400c3.79 1.427 7.271 3.162 10.813 5.125l2.957 1.633L631 408c-1.68.672-1.68.672-4 1-2.508-1.11-2.508-1.11-5.125-2.75l-2.633-1.61C617 403 617 403 615 400"></path>
        <path fill="#276E9F" d="m667 303 1 3c-4.514 3.523-7.283 4.457-13 4v-2l1.863-.332 2.45-.48 2.425-.458c2.496-.806 3.586-1.75 5.262-3.73"></path>
        <path fill="#2672A6" d="M561 286a901 901 0 0 1-6.375 4.063l-1.828 1.181c-1.562.98-3.177 1.875-4.797 2.756l-2-1c2.264-2.467 4.59-4.101 7.5-5.75l2.344-1.36C558 285 558 285 561 286"></path>
        <path fill="#276FA1" d="M466 173c5.62.401 8.087 2.18 12 6v2l3 1-3 1c-1.902-1.328-1.902-1.328-3.937-3.25-2.596-2.42-5.188-4.666-8.063-6.75"></path>
        <path fill="#2C75A8" d="M639 304c10.558 1.927 10.558 1.927 15 4v1c-5.273-.445-10.018-1.084-15-3z"></path>
        <path fill="#2370A5" d="M499 292h1v14h-2c-.934-5.417-1.208-8.805 1-14"></path>
        <path fill="#2972A4" d="m484 430 3 1-9 9-1-3z"></path>
        <path fill="#3BACCE" d="m588 766 1 3c-1.363 2.7-1.363 2.7-3.312 5.688l-1.926 3.011L582 780h-2c1.538-3.196 3.289-6.216 5.125-9.25l1.633-2.703z"></path>
        <path fill="#3072A2" d="m499 501 1.563 2.313c2.995 3.303 5.294 4.173 9.437 5.687v1c-3.732.347-5.6.235-8.875-1.687C499 506 499 506 498.688 503.25z"></path>
        <path fill="#3076A6" d="M484 467c-1.555 3.817-4.036 6.192-7 9l-3-1a680 680 0 0 1 3.875-4l2.18-2.25C482 467 482 467 484 467"></path>
        <path fill="#246998" d="M511 141c3.107.786 6.092 1.64 9 3 1.563 2.688 1.563 2.688 2 5l-2.562-1.875c-3.352-2.255-6.527-3.186-10.438-4.125z"></path>
        <path fill="#FB7B3E" d="M297 667c1 3 1 3 .074 5.043l-1.387 2.144-1.363 2.168L293 678h-2c1.45-4.11 3.511-7.433 6-11"></path>
        <path fill="#F07245" d="m369 442 8 8-1 2c-2.937-1.625-2.937-1.625-6-4-.875-3.25-.875-3.25-1-6"></path>
        <path fill="#2673A8" d="M524 348c4.776 1.642 8.794 4.265 13 7l-3 1c-2.227-1.145-2.227-1.145-4.625-2.812l-2.414-1.645C525 350 525 350 524 348"></path>
        <path fill="#F86C3A" d="M320 362c3.39 2.26 3.853 3.207 5 7 .125 2.813.125 2.813 0 5-3.06-3.755-5-7.081-5-12"></path>
        <path fill="#40B5D6" d="M738 695h1l-1 10-3-1v-4h2z"></path>
        <path fill="#FB733F" d="M391 589h2l1 11h-2c-1.283-3.85-1.066-6.947-1-11"></path>
        <path fill="#39AED1" d="m735 565 2 1a424 424 0 0 1-3.75 2.938l-2.11 1.652c-2.1 1.384-3.683 1.973-6.14 2.41v-2c2.117-1.543 2.117-1.543 4.875-3.187l2.742-1.668z"></path>
        <path fill="#2973A7" d="M382 239c4.033 1.22 7.543 2.56 11 5v2c-4.033-1.22-7.543-2.56-11-5z"></path>
        <path fill="#2770A2" d="m600 207 2 2-1.375 1.563c-2.007 3.01-2.752 5.946-3.625 9.437h-1c.595-9.595.595-9.595 4-13"></path>
        <path fill="#266FA3" d="m555 204 1 3-2.375 1.813c-2.77 2.098-2.77 2.098-4.625 5.187l-3-1z"></path>
        <path fill="#2975AA" d="m533 190 3 1c-2.578 2.648-4.916 4.944-8 7 .542-3.796 2.201-5.472 5-8"></path>
        <path fill="#F39253" d="m348 746 3 3c-1.074 2.915-1.778 4.778-4 7-1.312-3.937-.243-6.125 1-10"></path>
        <path fill="#2874A6" d="M524 452q1.693 1.4 3.375 2.813l1.898 1.582C531 458 531 458 533 461c-2.335-.173-3.692-.702-5.379-2.332C524 454.428 524 454.428 524 452"></path>
        <path fill="#FC803D" d="M379 719v2c-2.812 2.688-2.812 2.688-6 5l-3-1a483 483 0 0 1 3.375-3l1.898-1.687C377 719 377 719 379 719"></path>
        <path fill="#2872A1" d="M662 345c3.018.326 4.597.61 6.813 2.75 1.383 2.622 1.43 4.327 1.187 7.25l-.625-1.687c-1.915-3.222-4.459-4.967-7.375-7.313z"></path>
        <path fill="#2875A9" d="m550 320 2 1a164 164 0 0 1-3.25 2.563l-1.828 1.44c-1.922.997-1.922.997-4.156.65L541 325c6.466-3.951 6.466-3.951 9-5"></path>
        <path fill="#2572A7" d="M499 187h1v10h-2l-1-8h2z"></path>
        <path fill="#2973A6" d="m548 175 2 1-7 8-1-3h2l.875-1.875C546 177 546 177 548 175"></path>
        <path fill="#FB7C3C" d="M429 721h1c-.438 4.557-.85 7.577-4 11l1-8h2z"></path>
        <path fill="#FA7D40" d="M431 709h2q-.172 2.22-.375 4.438l-.21 2.496L432 718l-2 1z"></path>
        <path fill="#F97240" d="M279 542c4.875 4.625 4.875 4.625 6 8-2.468-1.152-4.048-2.048-6-4z"></path>
        <path fill="#2772A6" d="M587 356c3.316.553 6.15 1.168 9 3l1 3c-3.59-1.333-6.796-2.894-10-5z"></path>
        <path fill="#FC7B3C" d="M290 679c1 3 1 3 .25 5.625C289 687 289 687 286 688c1.75-6.75 1.75-6.75 4-9"></path>
        <path fill="#F97139" d="m467 585 1 3h2v8c-2.398-2.398-2.343-3.333-2.625-6.625l-.227-2.477z"></path>
        <path fill="#F48E4D" d="m393.188 798.375 1.813.625-7 4v-3c3-2 3-2 5.187-1.625"></path>
        <path fill="#FB7B3E" d="M302 658h2c-.6 3.356-1.846 5.378-4 8l-2-1z"></path>
        <path fill="#FA753C" d="M431 652c1 2 1 2 .441 3.945l-.878 2.18-.872 2.195L429 662h-2q.714-2.22 1.438-4.437l.808-2.497C430 653 430 653 431 652"></path>
        <path fill="#38AACE" d="m599 643-13-1v-1c1.413-.25 2.83-.475 4.25-.687l2.39-.387C595 640 595 640 599 643"></path>
        <path fill="#2770A0" d="M597 438c2.387 2.963 4.735 5.943 7 9-3.653-1.25-4.78-1.671-7-5z"></path>
        <path fill="#F76B38" d="m316 350 1 2 3 1-1 8h-1c-1.193-3.877-2-6.916-2-11"></path>
        <path fill="#2873A8" d="m631.313 244.313 1.688.688c-6.75 4-6.75 4-9 4v-2c4.152-3.115 4.152-3.115 7.312-2.688"></path>
        <path fill="#2C78AC" d="m490 228 6 5-1 3c-2.5-2.312-2.5-2.312-5-5z"></path>
        <path fill="#276D9E" d="m407.188 205.375 1.813.625-2.875 1.875c-3.07 1.945-3.07 1.945-5.125 4.125.312-2.375.312-2.375 1-5 3-2 3-2 5.187-1.625"></path>
        <path fill="#2B74A7" d="M395 381c-2.686 2.686-5.376 3.06-9 4v-2c3.435-2.29 4.985-2.178 9-2"></path>
        <path fill="#2972A6" d="M495 350v2c-4.153 3.115-4.153 3.115-7.312 2.688L486 354c6.75-4 6.75-4 9-4"></path>
        <path fill="#2878AE" d="m490 302 8 2v3c-3.375-1.186-5.647-2.276-8-5"></path>
        <path fill="#E17C4F" d="m194 715 2 4h-2l-1-3z"></path>
        <path fill="#F58555" d="M432 666h1v6h-1z"></path>
        <path fill="#E37A50" d="M170 627h1v6h-1z"></path>
        <path fill="#48BFE1" d="M704 622h6v1h-6z"></path>
        <path fill="#E17950" d="m169 608 1 4h-2z"></path>
        <path fill="#F58656" d="M432 688h1v5h-1z"></path>
        <path fill="#46BBDA" d="M784 640h5v1h-5z"></path>
        <path fill="#E17551" d="m177 542 1 4-2-1z"></path>
        <path fill="#E37A4F" d="m178 675 1 4Z"></path>
        <path fill="#E37B50" d="m176 666 1 4Z"></path>
        <path fill="#5EBBD3" d="M515 662h3l-1 2z"></path>
        <path fill="#48BFE1" d="m592 613 3 1h-3z"></path>
        <path fill="#51BEDD" d="m536 613 4 1Z"></path>
        <path fill="#49BCDC" d="m617 577 4 1Z"></path>
        <path fill="#6987A3" d="m449 470 1 4Z"></path>
        <path fill="#49B3D0" d="m448 877 3 1Z"></path>
        <path fill="#45B0CF" d="M578 861h2l-1 2z"></path>
        <path fill="#46B4D1" d="M722 781h2l-1 2z"></path>
        <path fill="#63BCD1" d="m512 662 2 1-2 1z"></path>
        <path fill="#49C0E3" d="m699 623 3 1Z"></path>
        <path fill="#48BFE1" d="m711 621 3 1Z"></path>
        <path fill="#4CBDDD" d="m586 577 3 1Z"></path>
        <path fill="#CE7F69" d="m422 496 2 1-2 1z"></path>
        <path fill="#46BFE1" d="m707 454 3 1Z"></path>
        <path fill="#42ADCE" d="m750 401 3 1Z"></path>
        <path fill="#3688BB" d="m620 352 3 1Z"></path>
        <path fill="#3987B8" d="m400 352 3 1Z"></path>
        <path fill="#6888A5" d="m358 310 2 2h-2z"></path>
        <path fill="#49B2CF" d="m452 878 2 1Z"></path>
        <path fill="#49B2CF" d="m441 875 2 1Z"></path>
        <path fill="#58AFC7" d="m387 855 2 1Z"></path>
        <path fill="#49C0DF" d="m483 845 2 1Z"></path>
        <path fill="#48C0DF" d="m538 841 2 1Z"></path>
        <path fill="#6DB2C4" d="m392 832 2 1Z"></path>
        <path fill="#D9895D" d="m298 814 2 1Z"></path>
        <path fill="#DC8B5D" d="m296 813 2 1Z"></path>
        <path fill="#49C1E0" d="m556 791 2 1Z"></path>
        <path fill="#47BFDE" d="m549 790 2 1Z"></path>
        <path fill="#49C0DF" d="m545 789 2 1Z"></path>
        <path fill="#46B3CF" d="m766 787 2 1Z"></path>
        <path fill="#43B3D5" d="m728 783 2 1Z"></path>
        <path fill="#46BEE1" d="m555 743 2 1Z"></path>
        <path fill="#47BEE2" d="m549 740 2 1Z"></path>
        <path fill="#47C0E1" d="m545 739 2 1Z"></path>
        <path fill="#47C2E1" d="m769 736 2 1Z"></path>
        <path fill="#45BFE2" d="m770 677 2 1Z"></path>
        <path fill="#49C1E2" d="m575 670 2 1Z"></path>
        <path fill="#4FC1DF" d="m536 662 2 1Z"></path>
        <path fill="#4FBFDD" d="m531 662 2 1Z"></path>
        <path fill="#47B9D9" d="m792 641 2 1Z"></path>
        <path fill="#53BDDA" d="m538 641 2 1Z"></path>
        <path fill="#48BFDF" d="m597 640 2 1Z"></path>
        <path fill="#53BDD9" d="m541 640 2 1Z"></path>
        <path fill="#48BEE1" d="m696 623 2 1Z"></path>
        <path fill="#48BFE3" d="m664 623 2 1Z"></path>
        <path fill="#47C0E2" d="m656 622 2 1Z"></path>
        <path fill="#48C0E1" d="m647 621 2 1Z"></path>
        <path fill="#56BED9" d="m531 614 2 1Z"></path>
        <path fill="#49BFE0" d="m586 613 2 1Z"></path>
        <path fill="#4DBFDD" d="m553 612 2 1Z"></path>
        <path fill="#4ABBDB" d="m590 577 2 1Z"></path>
        <path fill="#48BEDF" d="m705 576 2 1Z"></path>
        <path fill="#46BEE1" d="m727 453 2 1Z"></path>
        <path fill="#43AFD1" d="m753 402 2 1Z"></path>
        <path fill="#758399" d="m368 402 2 1Z"></path>
        <path fill="#43AFCF" d="m746 400 2 1Z"></path>
        <path fill="#4C89B4" d="m381 384 2 1Z"></path>
        <path fill="#5288AF" d="m371 375 2 1Z"></path>
        <path fill="#398ABE" d="m449 344 2 1Z"></path>
        <path fill="#3C89BE" d="m401 301 2 1Z"></path>
        <path fill="#3582B3" d="m654 280 2 1Z"></path>
        <path fill="#3E86B9" d="m378 269 2 1Z"></path>
        <path fill="#3685B8" d="m390 241 2 1Z"></path>
        <path fill="#3982B2" d="m374 232 2 1Z"></path>
        <path fill="#3D7AA5" d="m361 226 2 1Z"></path>
        <path fill="#4079A0" d="m358 226 2 1Z"></path>
        <path fill="#337AA9" d="m465 170 2 1Z"></path>
    </g>
</svg>